<svg width="242" height="242" viewBox="0 0 242 242" fill="none" xmlns="http://www.w3.org/2000/svg">
<circle cx="121" cy="121" r="121" fill="#219653"/>
<g clip-path="url(#clip0_1315_2482)">
<path fill-rule="evenodd" clip-rule="evenodd" d="M192.506 119.692C189.694 105.138 176.608 76.8428 181.569 63.7929C181.569 63.7929 183.171 61.557 181.218 60.5406C179.616 59.6869 150.437 70.5414 136.883 99.4868C142.273 104.975 161.765 127.375 158.914 161.402C164.07 149.125 169.616 131.4 168.132 117.171C168.132 117.171 168.484 115.789 168.913 116.561C176.413 130.953 169.929 170.997 154.148 182.908C183.053 179.29 197.897 147.458 192.506 119.651V119.692Z" fill="#193C40"/>
<path fill-rule="evenodd" clip-rule="evenodd" d="M65.596 148.759C58.5259 131.115 52.862 91.1528 38.4874 80.9894C38.4874 80.9894 35.2453 79.8105 36.6125 77.2493C38.0187 74.6881 96.0638 59.6056 133.485 105.016C133.485 105.016 161.726 133.92 153.015 173.598C153.015 173.598 151.804 177.989 148.562 177.948C145.32 177.908 103.681 155.06 89.814 127.822C89.814 127.822 88.4859 126.643 88.5641 127.782C90.5171 148.718 125.204 186.526 150.32 187.38C117.001 205.227 79.1112 182.461 65.5569 148.759H65.596Z" fill="#68D391"/>
</g>
<defs>
<clipPath id="clip0_1315_2482">
<rect width="157.3" height="133.1" fill="white" transform="translate(36.3 60.5)"/>
</clipPath>
</defs>
</svg>
